<svg xmlns="http://www.w3.org/2000/svg" viewBox="0 0 1871.9 427.4"><path d="M421.3 391L361 330.9c70.6-87.2 57.1-215.1-30.1-285.6s-215.1-57.2-285.7 30S-11.9 290.4 75.3 361c74.5 60.3 181 60.3 255.6 0l60.2 60.4c8.3 8.4 21.8 8.4 30.2.1l.1-.1c8.4-8.3 8.4-21.8.1-30.2l-.2-.2zM351 126.9l-49.8 177.6c-2.4 7.8-9.6 13.5-17.7 13.5h-21.6c-6 0-11.7-4.2-13.8-10.2L207.6 183l-39.9 124.8c-2.1 6-7.8 10.2-13.8 10.2h-21.6c-8.1 0-15.3-5.4-17.7-13.2L62.1 126.9c-.6-1.5-.6-3-.6-4.5 0-7.8 6.3-14.4 14.4-14.4h21c8.1 0 15.3 5.7 17.4 13.5l31.8 119.1 35.4-119.4c2.4-7.8 9.6-13.2 17.7-13.2h20.7c8.1 0 15.6 5.4 18 13.2l36.3 119.4 32.4-119.1c2.1-7.8 9.3-13.5 17.4-13.5h12.9c8.1 0 14.7 6.9 14.7 15 0 1.2-.3 2.7-.6 3.9zm196.7-22.5c-66.9 0-111.6 47.7-111.6 108.6 0 66.9 47.7 108.6 111.6 108.6s111.6-45 111.6-108.6c0-66.9-47.7-108.6-111.6-108.6zm0 172.2c-33.6 0-60.6-27.6-60.6-63.6 0-38.4 25.8-63.6 60.6-63.6 33.9 0 60.6 25.2 60.6 63.6 0 35.4-20.7 63.6-60.6 63.6zM812 235.2c11.4-5.7 35.4-21.6 35.4-60.6 0-38.7-20.4-67.2-77.7-67.2-4.5 0-37.2.3-57.6.6-7.5 0-13.8 6.3-13.8 13.8v182.4c0 7.5 6.3 13.8 13.8 13.8h20.4c7.5 0 13.8-6.3 13.8-13.8v-59.7H764l45 64.8c3.6 5.4 10.2 8.7 16.5 8.7h22.2c7.8 0 13.2-6.3 13.2-12.9 0-2.4-.9-5.1-2.7-7.5L812 235.2zm-48.3-35.7h-17.4V153c9.9-.3 13.8-.6 21-.6 23.1 0 29.1 11.1 29.1 22.8 0 17.7-14.4 24.3-32.7 24.3zm201.6-92.4c-10.5 0-34.8.6-52.5.9-7.5 0-13.8 6.3-13.8 14.1v181.8c0 7.8 6.3 14.1 13.8 14.1 21 .3 41.1.6 50.1.6 80.1 0 120.3-48.6 120.3-107.4 0-55.8-33.9-104.1-117.9-104.1zm-.9 166.5c-6.9 0-11.1 0-17.4-.6V153c6-.9 12.6-.9 17.7-.9 39 0 67.5 20.4 67.5 59.1 0 39.9-26.4 62.4-67.8 62.4zM1289.9 108H1196c-7.5 0-13.8 6.3-13.8 13.8v182.4c0 7.5 6.3 13.8 13.8 13.8h20.4c7.5 0 13.8-6.3 13.8-13.8v-61.8h50.7c7.5 0 13.8-6.3 13.8-13.8v-17.4c0-7.5-6.3-13.8-13.8-13.8h-50.7V153h59.7c7.5 0 13.8-6.3 13.8-13.8v-17.4c0-7.5-6.3-13.8-13.8-13.8zm90 0h-20.4c-7.5 0-13.8 6.3-13.8 13.8v182.4c0 7.5 6.3 13.8 13.8 13.8h20.4c7.5 0 13.8-6.3 13.8-13.8V121.8c0-7.5-6.3-13.8-13.8-13.8zm240 0h-17.4c-7.5 0-13.8 6.3-13.8 13.8v112.8l-93-118.2c-3.9-5.1-10.8-8.4-17.1-8.4h-14.1c-7.5 0-13.8 6.3-13.8 13.8v182.4c0 7.5 6.3 13.8 13.8 13.8h17.4c7.5 0 13.8-6.3 13.8-13.8V192l93 117.6c3.9 5.1 10.8 8.4 17.1 8.4h14.1c7.5 0 13.8-6.3 13.8-13.8V121.8c0-7.5-6.3-13.8-13.8-13.8zm134.1-.9c-10.5 0-34.8.6-52.5.9-7.5 0-13.8 6.3-13.8 14.1v181.8c0 7.8 6.3 14.1 13.8 14.1 21 .3 41.1.6 50.1.6 80.1 0 120.3-48.6 120.3-107.4 0-55.8-33.9-104.1-117.9-104.1zm-.9 166.5c-6.9 0-11.1 0-17.4-.6V153c6-.9 12.6-.9 17.7-.9 39 0 67.5 20.4 67.5 59.1 0 39.9-26.4 62.4-67.8 62.4z" fill="#fff"/></svg>