<?xml version="1.0" encoding="iso-8859-1"?><!DOCTYPE svg PUBLIC "-//W3C//DTD SVG 1.1//EN" "http://www.w3.org/Graphics/SVG/1.1/DTD/svg11.dtd"><svg viewBox="0 0 512 512" xmlns="http://www.w3.org/2000/svg" xmlns:xlink="http://www.w3.org/1999/xlink"><style>:root>svg{display:none}:root>svg:target{display:block}</style><svg viewBox="0 0 123.959 123.958" id="icon-down-arrow" xmlns="http://www.w3.org/2000/svg"><path d="M117.979 28.017h-112c-5.3 0-8 6.4-4.2 10.2l56 56c2.3 2.3 6.1 2.3 8.401 0l56-56c3.799-3.8 1.099-10.2-4.201-10.2z"/></svg><svg fill="none" viewBox="0 0 24 24" id="icon-help" xmlns="http://www.w3.org/2000/svg"><path d="M12 2.25c-5.376 0-9.75 4.374-9.75 9.75s4.374 9.75 9.75 9.75 9.75-4.374 9.75-9.75S17.376 2.25 12 2.25zm0 18c-4.549 0-8.25-3.701-8.25-8.25S7.451 3.75 12 3.75s8.25 3.701 8.25 8.25-3.701 8.25-8.25 8.25zm3.691-10.924c.263 1.497-.373 2.84-1.79 3.781-.941.625-1.146 1-1.19 1.133a.75.75 0 01-1.422-.48c.213-.632.779-1.236 1.782-1.902.929-.617 1.302-1.36 1.142-2.272A2.25 2.25 0 009.749 10a.75.75 0 01-1.5 0c0-1.111.488-2.158 1.34-2.873a3.767 3.767 0 013.084-.818c1.512.265 2.753 1.506 3.018 3.017zM13 17a1 1 0 11-2 0 1 1 0 012 0z" fill="currentColor"/></svg><svg clip-rule="evenodd" fill-rule="evenodd" image-rendering="optimizeQuality" shape-rendering="geometricPrecision" text-rendering="geometricPrecision" viewBox="0 0 2.54 2.54" id="icon-no_valid" xmlns="http://www.w3.org/2000/svg"><circle cx="1.27" cy="1.27" fill="#ff1f1f" r="1.27"/><path d="M.958 1.44h1.115a.17.17 0 00.17-.17.17.17 0 00-.17-.17H.467a.17.17 0 00-.17.17c0 .093.077.17.17.17z" fill="#fff"/></svg><svg viewBox="0 0 56.966 56.966" id="icon-search" xmlns="http://www.w3.org/2000/svg"><path d="M55.146 51.887L41.588 37.786A22.926 22.926 0 0046.984 23c0-12.682-10.318-23-23-23s-23 10.318-23 23 10.318 23 23 23c4.761 0 9.298-1.436 13.177-4.162l13.661 14.208c.571.593 1.339.92 2.162.92.779 0 1.518-.297 2.079-.837a3.004 3.004 0 00.083-4.242zM23.984 6c9.374 0 17 7.626 17 17s-7.626 17-17 17-17-7.626-17-17 7.626-17 17-17z"/></svg><svg viewBox="0 -51 409.6 409" id="icon-sort" xmlns="http://www.w3.org/2000/svg"><path d="M24.137 222.184L0 246.316l56.203 56.188c6.664 6.664 17.484 6.664 24.137 0l56.195-56.188-24.137-24.152-27.062 27.07V.301H51.199v248.933zm0 0M170.664 34.434h238.938V68.57H170.664zm0 0M170.664 102.7h187.734v34.136H170.664zm0 0M170.664 170.965H307.2v34.137H170.664zm0 0M170.664 239.234H256v34.13h-85.336zm0 0"/></svg><svg clip-rule="evenodd" fill-rule="evenodd" image-rendering="optimizeQuality" shape-rendering="geometricPrecision" text-rendering="geometricPrecision" viewBox="0 0 2.54 2.54" id="icon-valid" xmlns="http://www.w3.org/2000/svg"><circle cx="1.27" cy="1.27" fill="#00ba00" r="1.27"/><path d="M.873 1.89L.41 1.391a.17.17 0 01.008-.24.17.17 0 01.24.009l.358.383.567-.53a.17.17 0 01.016-.013l.266-.249a.17.17 0 01.24.008.17.17 0 01-.008.24l-.815.76-.283.263-.125-.134z" fill="#fff"/></svg></svg>