<?xml version="1.0" encoding="utf-8"?><svg viewBox="0 0 512 512" xmlns="http://www.w3.org/2000/svg" xmlns:xlink="http://www.w3.org/1999/xlink"><style>:root>svg{display:none}:root>svg:target{display:block}</style><svg clip-rule="evenodd" fill-rule="evenodd" image-rendering="optimizeQuality" shape-rendering="geometricPrecision" text-rendering="geometricPrecision" viewBox="0 0 2.54 2.54" id="icon-no_valid" xmlns="http://www.w3.org/2000/svg"><circle cx="1.27" cy="1.27" fill="#ff1f1f" r="1.27"/><path d="M.958 1.44h1.115a.17.17 0 00.17-.17.17.17 0 00-.17-.17H.467a.17.17 0 00-.17.17c0 .093.077.17.17.17z" fill="#fff"/></svg><svg clip-rule="evenodd" fill-rule="evenodd" image-rendering="optimizeQuality" shape-rendering="geometricPrecision" text-rendering="geometricPrecision" viewBox="0 0 2.54 2.54" id="icon-valid" xmlns="http://www.w3.org/2000/svg"><circle cx="1.27" cy="1.27" fill="#00ba00" r="1.27"/><path d="M.873 1.89L.41 1.391a.17.17 0 01.008-.24.17.17 0 01.24.009l.358.383.567-.53a.17.17 0 01.016-.013l.266-.249a.17.17 0 01.24.008.17.17 0 01-.008.24l-.815.76-.283.263-.125-.134z" fill="#fff"/></svg></svg>